<?xml version="1.0" encoding="utf-8"?>
<!-- Generator: Adobe Illustrator 25.0.0, SVG Export Plug-In . SVG Version: 6.00 Build 0)  -->
<svg version="1.1" id="Layer_1" xmlns="http://www.w3.org/2000/svg" xmlns:xlink="http://www.w3.org/1999/xlink" x="0px" y="0px"
	 viewBox="0 0 512 512" enable-background="new 0 0 512 512" xml:space="preserve">
<polygon fill="none" stroke="#197056" stroke-width="8" stroke-linecap="round" stroke-linejoin="round" stroke-miterlimit="10" points="
	499.504,401.794 12.496,401.794 12.496,415.264 31.513,439.034 478.402,439.034 499.504,416.056 "/>
<path fill="none" stroke="#197056" stroke-width="8" stroke-linecap="round" stroke-linejoin="round" stroke-miterlimit="10" d="
	M468.894,401.794V91.19c0,0,0.792-18.224-18.224-18.224H55.283c0,0-17.828,3.962-17.828,17.828v311"/>
<line fill="none" stroke="#197056" stroke-width="8" stroke-linecap="round" stroke-linejoin="round" stroke-miterlimit="10" x1="37.455" y1="129.223" x2="468.894" y2="129.223"/>
<line fill="none" stroke="#197056" stroke-width="8" stroke-linecap="round" stroke-linejoin="round" stroke-miterlimit="10" x1="79.846" y1="99.906" x2="339.739" y2="99.906"/>
<circle fill="none" stroke="#197056" stroke-width="8" stroke-linecap="round" stroke-linejoin="round" stroke-miterlimit="10" cx="217.716" cy="203.852" r="38.429"/>
<path fill="none" stroke="#197056" stroke-width="8" stroke-linecap="round" stroke-linejoin="round" stroke-miterlimit="10" d="
	M276.868,271.225l-24.288-8.884l-26.94,51.331h-15.847l-26.94-51.331l-32.487,11.883c0,0-22.978,12.337-22.978,39.448v48.516h90.329
	h90.329V328.01"/>
<path fill="none" stroke="#197056" stroke-width="8" stroke-linecap="round" stroke-linejoin="round" stroke-miterlimit="10" d="
	M276.868,271.225l44.113-36.412c3.901-3.22,9.727-2.663,12.947,1.238l62.989,76.31c3.22,3.901,2.663,9.727-1.238,12.946
	l-46.356,38.263c-3.901,3.22-9.727,2.663-12.946-1.238l-28.331-34.323"/>
<path fill="none" stroke="#197056" stroke-width="8" stroke-linecap="round" stroke-linejoin="round" stroke-miterlimit="10" d="
	M276.868,271.225l-2.242,1.851c-3.901,3.22-4.458,9.046-1.238,12.946l34.658,41.987"/>
<line fill="none" stroke="#197056" stroke-width="8" stroke-linecap="round" stroke-linejoin="round" stroke-miterlimit="10" x1="292.291" y1="286.495" x2="329.516" y2="256"/>
<line fill="none" stroke="#197056" stroke-width="8" stroke-linecap="round" stroke-linejoin="round" stroke-miterlimit="10" x1="306.308" y1="303.605" x2="343.532" y2="273.11"/>
<line fill="none" stroke="#197056" stroke-width="8" stroke-linecap="round" stroke-linejoin="round" stroke-miterlimit="10" x1="320.324" y1="320.715" x2="357.549" y2="290.22"/>
<line fill="none" stroke="#197056" stroke-width="8" stroke-linecap="round" stroke-linejoin="round" stroke-miterlimit="10" x1="334.341" y1="337.825" x2="371.566" y2="307.33"/>
</svg>
