<?xml version="1.0" encoding="utf-8"?>
<!-- Generator: Adobe Illustrator 25.0.0, SVG Export Plug-In . SVG Version: 6.00 Build 0)  -->
<svg version="1.1" id="Layer_1" xmlns="http://www.w3.org/2000/svg" xmlns:xlink="http://www.w3.org/1999/xlink" x="0px" y="0px"
	 viewBox="0 0 512 512" enable-background="new 0 0 512 512" xml:space="preserve">
<g>
	<path fill="none" stroke="#197056" stroke-width="8" stroke-linecap="round" stroke-linejoin="round" stroke-miterlimit="10" d="
		M74.125,7.31h369.769c0,0,62.106-9.555,62.106,62.106v239.824"/>
	<path fill="none" stroke="#197056" stroke-width="8" stroke-linecap="round" stroke-linejoin="round" stroke-miterlimit="10" d="
		M104.7,505.113l118.479-115.613H385.61c0,0,38.219,4.777,38.219-38.219v-230.27c0,0,0.955-32.964-32.964-32.964H54.06
		c0,0-48.013-2.866-48.013,48.013v217.132c0,0-2.866,35.95,35.95,35.95h105.699"/>
</g>
<line fill="none" stroke="#197056" stroke-width="8" stroke-linecap="round" stroke-linejoin="round" stroke-miterlimit="10" x1="34.285" y1="158.064" x2="394.243" y2="158.064"/>
<line fill="none" stroke="#197056" stroke-width="8" stroke-linecap="round" stroke-linejoin="round" stroke-miterlimit="10" x1="34.285" y1="209.394" x2="394.243" y2="209.394"/>
<line fill="none" stroke="#197056" stroke-width="8" stroke-linecap="round" stroke-linejoin="round" stroke-miterlimit="10" x1="34.285" y1="260.725" x2="394.243" y2="260.725"/>
<line fill="none" stroke="#197056" stroke-width="8" stroke-linecap="round" stroke-linejoin="round" stroke-miterlimit="10" x1="34.285" y1="312.056" x2="394.243" y2="312.056"/>
</svg>
